<?xml version="1.0" encoding="utf-8"?>
<!-- Generator: Adobe Illustrator 19.0.0, SVG Export Plug-In . SVG Version: 6.00 Build 0)  -->
<svg version="1.1" id="Layer_1" xmlns="http://www.w3.org/2000/svg" xmlns:xlink="http://www.w3.org/1999/xlink" x="0px" y="0px"
	 viewBox="0 0 205 100" style="enable-background:new 0 0 205 100;" xml:space="preserve">
<style type="text/css">
	.st0{fill:#FFFFFF;}
</style>
<g>
	<g>
		<path class="st0" d="M80.5,52.4c1-1.6,1.6-3.5,1.6-5.8c0-4.3-1.5-8-4.4-9.7c-2.6-1.5-6.4-2.9-11.3-2.9H48v41h11V60h7
			c2.8,0,3.7,0.4,3.9,0.7c0.7,0.7,1,1.4,1.1,2.5l0,0.1c0,0.1,0.1,0.6,0.2,2.6c0,3.6,0.5,6.4,1.5,7.9l0.5,1.2h10.4l-1.4-2.8
			c-0.5-0.9-0.7-1.7-0.8-2c-0.1-0.5-0.2-1.4-0.2-2.3l0-0.2c0-0.5-0.1-1.1-0.1-1.6c0-0.6,0-1.1-0.1-1.5c-0.1-2.6-0.5-4.7-1.3-6.4
			c-0.4-1-1.1-1.8-2-2.5l-0.3-0.2l0.3-0.2C78.8,54.7,79.7,53.7,80.5,52.4z M66.1,52H59v-9h6.5c2.4,0,4.2,0.5,5.3,1.1
			c0.8,0.4,1.2,1.7,1.2,3.3C72.1,49.4,71.4,52,66.1,52z"/>
		<path class="st0" d="M97.6,66h13.3l3.1,9h10.4l-15.7-41h-9L84.3,75h10.3L97.6,66z M104.2,47l3.8,10h-7.4L104.2,47z"/>
		<path class="st0" d="M161.5,67.9c2.6,3.1,5.4,5,8.5,5.8c2.9,0.8,5.5,1.2,7.8,1.2c4.3,0,8.8-1.3,13.2-3.8c4.7-2.7,7.1-8.2,7.1-16.6
			c0-8.4-2.4-14-7-16.6c-4.4-2.5-8.8-3.7-13.2-3.7c-4.4,0-8.8,1.2-13.2,3.7c-4.7,2.6-7,8.2-7,16.6C157.6,60.4,158.9,64.9,161.5,67.9
			z M170.2,45.7c1.3-2.2,3.8-3.3,7.6-3.3c3.9,0,6.4,1.1,7.7,3.3c1.5,2.5,2.2,5.5,2.2,8.9c0,3.4-0.8,6.3-2.2,8.9
			c-1.3,2.3-3.8,3.4-7.7,3.4c-3.8,0-6.3-1.1-7.6-3.4c-1.5-2.5-2.2-5.5-2.2-8.9C168,51.2,168.7,48.2,170.2,45.7z"/>
		<path class="st0" d="M28.5,34H9v41h18.8c2.7,0,5.2-0.8,7.4-1.3c2.4-0.6,4.4-2,6-3.7c1.6-1.7,2.4-4.3,2.4-7.4c0-3.2-1-5.8-3.1-7.5
			c-0.8-0.6-1.6-1.2-2.4-1.6l-0.3-0.2l0.4-0.3c1.1-0.9,2-2,2.6-3.3c0.6-1.3,0.9-2.5,1-3.7c0.2-2.6-0.7-5.7-2.5-7.9
			C37.2,35.8,33.6,34,28.5,34z M18,43h8.7c2.4,0,3.6,0.7,4.3,1c0.4,0.2,1,0.9,1,2.4c0,1.5-0.4,2.4-1.1,2.8c-1.1,0.5-2.5,0.8-4,0.8
			H18V43z M32,65c-1.3,0.6-3,1-4.8,1H18v-9h9.2c2.2,0,3.8,0.8,4.9,1.4c0.5,0.3,1.3,1.2,1.3,3.2C33.4,63.9,32.6,64.8,32,65z"/>
		<polygon class="st0" points="142.3,75 156.5,34 146,34 137.6,59 129.1,34 118.7,34 132.9,75 		"/>
		<circle class="st0" cx="137.6" cy="49.5" r="0.9"/>
		<circle class="st0" cx="137.6" cy="38.1" r="0.9"/>
		<polygon class="st0" points="139,33.2 144,35.4 144,27.9 139,30.1 139,30 136,30 136,30.1 130,27.9 130,35.4 136,33.2 136,33 
			139,33 		"/>
		<circle class="st0" cx="137.6" cy="43.8" r="0.9"/>
		<path class="st0" d="M154,25h-6.8l1-25h-21.1l1,25h-8v2h34V25z M145.1,25H144V2h1.7L145.1,25z"/>
		<path class="st0" d="M202.3,84.7c0.5-0.2,0.9-0.2,1.7-0.2V25h-44v2h36.7c3,0,4.3,2.7,4.3,5.7V81H4V32.7c0-3,1.9-5.7,4.9-5.7H114
			v-2H1v59.5c1.7,0,1.5,0.1,2,0.2c2,0.6,3.6,2.1,3.6,4.1c0,2-1.2,3.1-3.2,4.1h0l0,0c-0.2,0-0.7,0.3-0.9,0.3
			c-0.4,0.1,0.1,0.4-1.5,0.4V97v3h203v-6.3c-0.8,0-1.2-0.1-1.7-0.2c-2-0.6-3.4-2.3-3.4-4.4C198.9,87,200.3,85.3,202.3,84.7z M201,97
			v2H4v-2H201z"/>
	</g>
	<g>
		<path d="M15.2,90.1V94h-1.3v-9.7h3.7c1,0,1.8,0.3,2.4,0.8c0.6,0.5,0.9,1.2,0.9,2.1c0,0.9-0.3,1.6-0.9,2.1
			c-0.6,0.5-1.4,0.8-2.4,0.8H15.2z M15.2,89h2.4c0.7,0,1.2-0.2,1.5-0.5c0.3-0.4,0.5-0.8,0.5-1.3s-0.2-1-0.5-1.3
			c-0.3-0.4-0.8-0.5-1.5-0.5h-2.4V89z"/>
		<path d="M30.2,84.2v6.5c0,1.1-0.3,1.9-1,2.5c-0.7,0.6-1.6,0.9-2.7,0.9c-1.1,0-1.9-0.3-2.6-0.9c-0.7-0.6-1-1.4-1-2.5v-6.5h1.3v6.5
			c0,0.7,0.2,1.3,0.6,1.7c0.4,0.4,1,0.6,1.6,0.6c0.7,0,1.3-0.2,1.7-0.6c0.4-0.4,0.7-1,0.7-1.7v-6.5H30.2z"/>
		<path d="M32.6,94v-9.7h3.2c1,0,1.8,0.2,2.4,0.7c0.6,0.4,0.9,1.1,0.9,2c0,0.4-0.1,0.8-0.4,1.1c-0.3,0.3-0.6,0.6-1,0.8
			c0.6,0.1,1.1,0.4,1.5,0.8c0.4,0.5,0.6,1,0.6,1.6c0,0.9-0.3,1.6-0.9,2c-0.6,0.5-1.4,0.7-2.4,0.7H32.6z M33.9,88.4h2.1
			c0.5,0,0.9-0.1,1.2-0.4c0.3-0.3,0.5-0.6,0.5-1.1c0-0.5-0.2-0.9-0.5-1.2c-0.3-0.3-0.8-0.4-1.4-0.4h-1.9V88.4z M33.9,89.4v3.5h2.5
			c0.6,0,1.1-0.1,1.4-0.4c0.3-0.3,0.5-0.7,0.5-1.3c0-0.5-0.2-1-0.5-1.3s-0.8-0.5-1.4-0.5h-0.1H33.9z"/>
		<path d="M54.4,89.8V94h-1.3v-9.7h3.3c1.1,0,1.9,0.2,2.4,0.7c0.6,0.5,0.8,1.2,0.8,2.1c0,0.5-0.1,0.9-0.4,1.3
			c-0.3,0.4-0.6,0.7-1.1,0.9c0.5,0.2,0.9,0.5,1.2,0.8c0.2,0.4,0.4,0.9,0.4,1.4v0.9c0,0.3,0,0.6,0.1,0.8c0.1,0.2,0.2,0.4,0.3,0.6V94
			h-1.4c-0.2-0.2-0.3-0.4-0.3-0.7c0-0.3-0.1-0.6-0.1-0.9v-0.9c0-0.5-0.2-0.9-0.5-1.3c-0.3-0.3-0.7-0.5-1.2-0.5H54.4z M54.4,88.7h1.9
			c0.7,0,1.3-0.1,1.6-0.4c0.3-0.3,0.5-0.7,0.5-1.3c0-0.5-0.2-1-0.5-1.3c-0.3-0.3-0.8-0.5-1.5-0.5h-2V88.7z"/>
		<path d="M67.5,89.5h-4v3.5h4.7v1h-6v-9.7h5.9v1h-4.6v3.1h4V89.5z"/>
		<path d="M75.3,91.5c0-0.4-0.2-0.8-0.5-1.1c-0.3-0.3-0.9-0.6-1.7-0.8c-1-0.2-1.8-0.6-2.3-1.1c-0.6-0.5-0.8-1.1-0.8-1.8
			c0-0.8,0.3-1.4,0.9-1.9c0.6-0.5,1.4-0.8,2.3-0.8c1,0,1.8,0.3,2.4,0.9c0.6,0.6,0.9,1.3,0.9,2l0,0h-1.3c0-0.6-0.2-1-0.6-1.4
			s-0.9-0.5-1.5-0.5c-0.6,0-1.1,0.1-1.4,0.4c-0.3,0.3-0.5,0.7-0.5,1.2c0,0.4,0.2,0.8,0.5,1.1c0.4,0.3,0.9,0.5,1.7,0.7
			c1,0.3,1.7,0.6,2.2,1.1c0.5,0.5,0.8,1.1,0.8,1.8c0,0.8-0.3,1.4-0.9,1.9c-0.6,0.5-1.4,0.7-2.4,0.7c-0.9,0-1.8-0.3-2.5-0.8
			s-1.1-1.2-1-2.1l0,0H71c0,0.6,0.2,1.1,0.7,1.4c0.5,0.3,1,0.5,1.6,0.5c0.6,0,1.1-0.1,1.5-0.4C75.1,92.4,75.3,92,75.3,91.5z"/>
		<path d="M85.6,85.3h-3.2V94h-1.3v-8.7h-3.2v-1h7.7V85.3z"/>
		<path d="M91.9,91.5h-3.7L87.4,94H86l3.5-9.7h1.1l3.4,9.7h-1.3L91.9,91.5z M88.6,90.4h2.9l-1.4-4.2h0L88.6,90.4z"/>
		<path d="M103,84.2v6.5c0,1.1-0.3,1.9-1,2.5c-0.7,0.6-1.6,0.9-2.7,0.9c-1.1,0-1.9-0.3-2.6-0.9c-0.7-0.6-1-1.4-1-2.5v-6.5h1.3v6.5
			c0,0.7,0.2,1.3,0.6,1.7c0.4,0.4,1,0.6,1.6,0.6c0.7,0,1.3-0.2,1.7-0.6c0.4-0.4,0.7-1,0.7-1.7v-6.5H103z"/>
		<path d="M106.7,89.8V94h-1.3v-9.7h3.3c1.1,0,1.9,0.2,2.4,0.7s0.8,1.2,0.8,2.1c0,0.5-0.1,0.9-0.4,1.3c-0.3,0.4-0.6,0.7-1.1,0.9
			c0.5,0.2,0.9,0.5,1.2,0.8c0.2,0.4,0.4,0.9,0.4,1.4v0.9c0,0.3,0,0.6,0.1,0.8c0.1,0.2,0.2,0.4,0.3,0.6V94h-1.4
			c-0.2-0.2-0.3-0.4-0.3-0.7s-0.1-0.6-0.1-0.9v-0.9c0-0.5-0.2-0.9-0.5-1.3c-0.3-0.3-0.7-0.5-1.2-0.5H106.7z M106.7,88.7h1.9
			c0.7,0,1.3-0.1,1.6-0.4c0.3-0.3,0.5-0.7,0.5-1.3c0-0.5-0.2-1-0.5-1.3c-0.3-0.3-0.8-0.5-1.5-0.5h-2V88.7z"/>
		<path d="M119.5,91.5h-3.7L115,94h-1.3l3.5-9.7h1.1l3.4,9.7h-1.3L119.5,91.5z M116.3,90.4h2.9l-1.4-4.2h0L116.3,90.4z"/>
		<path d="M130.9,94h-1.3l-4.7-7.4l0,0V94h-1.3v-9.7h1.3l4.7,7.4l0,0v-7.4h1.3V94z"/>
		<path d="M140.2,85.3H137V94h-1.3v-8.7h-3.2v-1h7.7V85.3z"/>
		<path d="M153.3,94v-9.7h3.1c1.3,0,2.3,0.4,3.1,1.2s1.2,1.8,1.2,3v1.3c0,1.2-0.4,2.3-1.2,3c-0.8,0.8-1.8,1.2-3.1,1.2H153.3z
			 M154.6,85.3v7.7h1.7c0.9,0,1.6-0.3,2.1-0.9c0.5-0.6,0.8-1.4,0.8-2.3v-1.3c0-0.9-0.3-1.7-0.8-2.3c-0.5-0.6-1.2-0.9-2.1-0.9H154.6z
			"/>
		<path d="M164.4,94h-1.3v-9.7h1.3V94z"/>
		<path d="M172.4,91.5c0-0.4-0.2-0.8-0.5-1.1s-0.9-0.6-1.7-0.8c-1-0.2-1.8-0.6-2.3-1.1s-0.8-1.1-0.8-1.8c0-0.8,0.3-1.4,0.9-1.9
			s1.4-0.8,2.3-0.8c1,0,1.8,0.3,2.4,0.9c0.6,0.6,0.9,1.3,0.9,2l0,0h-1.3c0-0.6-0.2-1-0.6-1.4c-0.4-0.4-0.9-0.5-1.5-0.5
			c-0.6,0-1.1,0.1-1.4,0.4s-0.5,0.7-0.5,1.2c0,0.4,0.2,0.8,0.5,1.1c0.4,0.3,0.9,0.5,1.7,0.7c1,0.3,1.7,0.6,2.2,1.1
			c0.5,0.5,0.8,1.1,0.8,1.8c0,0.8-0.3,1.4-0.9,1.9s-1.4,0.7-2.4,0.7c-0.9,0-1.8-0.3-2.5-0.8c-0.7-0.5-1.1-1.2-1-2.1l0,0h1.3
			c0,0.6,0.2,1.1,0.7,1.4c0.5,0.3,1,0.5,1.6,0.5c0.6,0,1.1-0.1,1.5-0.4C172.2,92.4,172.4,92,172.4,91.5z"/>
		<path d="M182.9,90.9L182.9,90.9c0,1-0.3,1.7-0.9,2.3s-1.5,0.9-2.6,0.9c-1.1,0-2-0.4-2.7-1.2s-1-1.8-1-3v-1.7c0-1.2,0.3-2.2,1-3
			s1.6-1.2,2.7-1.2c1.1,0,2,0.3,2.6,0.9c0.7,0.6,1,1.4,0.9,2.3l0,0h-1.3c0-0.7-0.2-1.2-0.6-1.6c-0.4-0.4-1-0.6-1.7-0.6
			c-0.7,0-1.3,0.3-1.8,0.9s-0.7,1.3-0.7,2.2V90c0,0.9,0.2,1.6,0.7,2.2c0.4,0.6,1,0.9,1.8,0.9c0.7,0,1.3-0.2,1.7-0.6
			c0.4-0.4,0.6-0.9,0.6-1.6H182.9z"/>
		<path d="M192.4,90c0,1.2-0.4,2.2-1.1,3c-0.7,0.8-1.7,1.2-2.9,1.2c-1.1,0-2.1-0.4-2.8-1.2c-0.7-0.8-1.1-1.8-1.1-3v-1.7
			c0-1.2,0.4-2.2,1.1-3c0.7-0.8,1.6-1.2,2.8-1.2c1.2,0,2.1,0.4,2.9,1.2c0.7,0.8,1.1,1.8,1.1,3V90z M191.1,88.2
			c0-0.9-0.2-1.6-0.7-2.2c-0.5-0.6-1.1-0.9-1.9-0.9c-0.8,0-1.4,0.3-1.8,0.9c-0.5,0.6-0.7,1.3-0.7,2.2V90c0,0.9,0.2,1.6,0.7,2.2
			c0.5,0.6,1.1,0.9,1.8,0.9c0.8,0,1.5-0.3,1.9-0.9c0.5-0.6,0.7-1.3,0.7-2.2V88.2z"/>
	</g>
	<circle cx="46" cy="89" r="1.1"/>
	<circle cx="146.9" cy="89" r="1.1"/>
</g>
</svg>
