<?xml version="1.0" encoding="utf-8"?>
<!-- Generator: Adobe Illustrator 19.0.0, SVG Export Plug-In . SVG Version: 6.00 Build 0)  -->
<svg version="1.1" id="Layer_1" xmlns="http://www.w3.org/2000/svg" xmlns:xlink="http://www.w3.org/1999/xlink" x="0px" y="0px"
	 viewBox="0 0 42 42" style="enable-background:new 0 0 42 42;" xml:space="preserve">
<style type="text/css">
	.st0{fill:#0071B5;}
	.st1{fill:#FFFFFF;}
</style>
<circle id="XMLID_8_" class="st0" cx="21" cy="21" r="21"/>
<path id="XMLID_2_" class="st1" d="M26.3,20.9c0,3-2.4,5.4-5.4,5.4c-3,0-5.4-2.4-5.4-5.4c0-0.4,0-0.7,0.1-1H12v7.2
	c0,1.5,1.2,2.8,2.8,2.8h12.3c1.5,0,2.8-1.2,2.8-2.8v-7.2h-3.6C26.3,20.2,26.3,20.6,26.3,20.9z M27.1,12H14.8c-1.5,0-2.8,1.2-2.8,2.8
	v3h4.5c1-1.4,2.6-2.3,4.4-2.3c1.8,0,3.4,0.9,4.4,2.3h4.5v-3C29.9,13.2,28.6,12,27.1,12z M28.4,15.4c0,0.3-0.2,0.5-0.5,0.5h-1.5
	c-0.3,0-0.5-0.2-0.5-0.5V14c0-0.3,0.2-0.5,0.5-0.5h1.5c0.3,0,0.5,0.2,0.5,0.5V15.4z M24.2,20.9c0-1.8-1.5-3.3-3.3-3.3
	c-1.8,0-3.3,1.5-3.3,3.3c0,1.8,1.5,3.3,3.3,3.3C22.8,24.2,24.2,22.8,24.2,20.9z"/>
</svg>
