<?xml version="1.0" encoding="utf-8"?>
<!-- Generator: Adobe Illustrator 19.0.0, SVG Export Plug-In . SVG Version: 6.00 Build 0)  -->
<svg version="1.1" id="Layer_1" xmlns="http://www.w3.org/2000/svg" xmlns:xlink="http://www.w3.org/1999/xlink" x="0px" y="0px"
	 viewBox="0 0 35 34" style="enable-background:new 0 0 35 34;" xml:space="preserve">
<style type="text/css">
	.st0{opacity:0.14;fill:#FFFFFF;}
	.st1{fill:#FFFFFF;}
</style>
<g>
	<circle class="st0" cx="17.5" cy="17" r="17"/>
	<g>
		<path class="st1" d="M9.4,9.8c-0.9,0.9-1,2.4-0.1,3.4l6.1,7.1c0.3,0.3,0.7,0.5,1.1,0.5c0.4,0,0.8-0.1,1.1-0.4l0,0l5,5.3
			c0.2,0.2,0.5,0.4,0.8,0.4c0.3,0,0.6-0.1,0.8-0.3l0.7-0.7c0.5-0.5,0.5-1.2,0-1.6L11.4,9.8C10.8,9.2,9.9,9.3,9.4,9.8L9.4,9.8z
			 M9.4,9.8"/>
		<path class="st1" d="M26.4,11.1L26.4,11.1c-0.2-0.2-0.5-0.2-0.6-0.1L22.8,14c-0.3,0.3-0.7,0.3-0.9,0l-0.1-0.1
			c-0.3-0.3-0.3-0.7,0-0.9l2.9-2.9c0.2-0.2,0.2-0.4,0-0.6l-0.1-0.1c-0.2-0.2-0.4-0.2-0.6,0l-2.9,2.9c-0.3,0.3-0.7,0.3-0.9,0
			l-0.1-0.1c-0.3-0.3-0.2-0.7,0-0.9l2.9-2.9c0.2-0.2,0.1-0.4,0-0.6L23,7.7c-0.2-0.2-0.4-0.2-0.6,0L18,12.1c-0.5,0.5-0.5,1.4,0,2
			l0.1,0.1L9,22.8c-0.2,0.2-0.4,0.5-0.4,0.8c0,0.3,0.1,0.6,0.3,0.8l0.7,0.7c0.2,0.2,0.5,0.3,0.8,0.3c0.3,0,0.6-0.1,0.8-0.4l8.6-9.1
			l0.2,0.2c0.5,0.5,1.4,0.5,1.9,0l4.4-4.4C26.6,11.6,26.6,11.3,26.4,11.1L26.4,11.1z M26.4,11.1"/>
	</g>
</g>
</svg>
