<?xml version="1.0" encoding="utf-8"?>
<!-- Generator: Adobe Illustrator 19.0.0, SVG Export Plug-In . SVG Version: 6.00 Build 0)  -->
<svg version="1.1" id="Layer_1" xmlns="http://www.w3.org/2000/svg" xmlns:xlink="http://www.w3.org/1999/xlink" x="0px" y="0px"
	 viewBox="0 0 35 34" style="enable-background:new 0 0 35 34;" xml:space="preserve">
<style type="text/css">
	.st0{opacity:0.14;fill:#FFFFFF;}
	.st1{fill:#FFFFFF;}
</style>
<g>
	<circle class="st0" cx="17.5" cy="17" r="17"/>
	<g>
		<g>
			<path class="st1" d="M13,25.1h9.3c0.3,0,0.5-0.2,0.5-0.5v-1.9c0-0.3-0.2-0.5-0.5-0.5v-1.1h0.9c1.3,0,2.4-1.1,2.4-2.4v-3.5
				c0-1.3-1.1-2.4-2.4-2.4h-0.9v-1.3c0-0.3-0.2-0.5-0.5-0.5h-8.4c-0.3,0-0.5,0.2-0.5,0.5v10.8c-0.3,0-0.5,0.2-0.5,0.5v1.9
				C12.5,24.9,12.7,25.1,13,25.1L13,25.1z M22.3,14.5h0.9c0.4,0,0.8,0.4,0.8,0.8v3.5c0,0.4-0.4,0.8-0.8,0.8h-0.9V14.5z M22.3,14.5"
				/>
		</g>
	</g>
	<circle class="st1" cx="13.5" cy="11" r="2"/>
	<circle class="st1" cx="16.5" cy="10" r="2"/>
	<circle class="st1" cx="18.5" cy="11" r="2"/>
	<circle class="st1" cx="21.5" cy="12" r="2"/>
</g>
</svg>
