<?xml version="1.0" encoding="utf-8"?>
<!-- Generator: Adobe Illustrator 19.0.0, SVG Export Plug-In . SVG Version: 6.00 Build 0)  -->
<svg version="1.1" id="Layer_1" xmlns="http://www.w3.org/2000/svg" xmlns:xlink="http://www.w3.org/1999/xlink" x="0px" y="0px"
	 viewBox="0 0 295 155" style="enable-background:new 0 0 295 155;" xml:space="preserve">
<style type="text/css">
	.st0{fill:#FFFFFF;}
</style>
<g>
	<polygon class="st0" points="215.2,50 177.1,50 175.6,3 216.7,3 	"/>
	<rect x="3" y="41" class="st0" width="290" height="112"/>
	<g>
		<path d="M116.7,81.8c1.5-2.2,2.2-4.9,2.2-8.1c0-6.1-2.1-10.8-6.1-13.1c-3.7-2.1-9-3.6-15.8-3.6H72v56h14V92h10.4
			c3.9,0,5.1,0.8,5.5,1.2c0.9,0.9,1.4,2,1.6,3.5l0,0.2c0,0.2,0.1,0.9,0.3,3.7c0.1,5,0.7,8.8,2.1,10.9l0.7,1.5h14.6l-2-3.8
			c-0.8-1.2-1-2.3-1.2-2.7c-0.2-0.7-0.3-1.9-0.3-3.1l0-0.2c0-0.7-0.1-1.5-0.1-2.3c0-0.8,0-1.5-0.1-2.1c-0.1-3.6-0.7-6.6-1.8-9
			c-0.6-1.4-1.5-2.5-2.8-3.5l-0.4-0.3l0.4-0.3C114.2,85,115.5,83.6,116.7,81.8z M96.5,81H86V69h9.6c3.3,0,5.8,0.5,7.5,1.3
			c1.1,0.5,1.7,2.1,1.7,4.5C104.8,77.6,103.9,81,96.5,81z"/>
		<path d="M140.6,101h18.6l4.4,12h14.5l-21.9-56h-12.6L122,113h14.4L140.6,101z M149.8,74l5.3,14h-10.4L149.8,74z"/>
		<path d="M230,103.5c3.6,4.3,7.6,7,11.8,8.2c4,1.1,7.7,1.6,11,1.6c6,0,12.3-1.8,18.5-5.3c6.6-3.7,9.9-11.5,9.9-23.2
			c0-11.7-3.3-19.5-9.8-23.2c-6.1-3.4-12.4-5.2-18.5-5.2c-6.1,0-12.3,1.7-18.4,5.2c-6.5,3.6-9.8,11.5-9.8,23.2
			C224.5,92.9,226.3,99.2,230,103.5z M242.1,72.4c1.9-3.1,5.3-4.7,10.6-4.7c5.4,0,8.9,1.5,10.8,4.7c2.1,3.5,3.1,7.7,3.1,12.4
			c0,4.7-1.1,8.9-3.1,12.4c-1.9,3.2-5.4,4.7-10.8,4.7c-5.3,0-8.7-1.5-10.6-4.7c-2.1-3.6-3.1-7.7-3.1-12.4
			C239,80.1,240.1,75.9,242.1,72.4z"/>
		<path d="M43.9,57H17v56h25.9c3.8,0,7.3-0.9,10.3-1.7c3.4-0.8,6.2-2.7,8.3-5.1c2.2-2.4,3.4-6,3.3-10.3c0-4.5-1.5-8.1-4.3-10.5
			c-1.1-0.9-2.2-1.6-3.3-2.2L56.7,83l0.6-0.5c1.6-1.2,2.8-2.8,3.7-4.6c0.9-1.8,1.3-3.5,1.4-5.2c0.2-3.7-1-7.6-3.5-10.6
			C56.1,59,51.1,57,43.9,57z M30,69h11.4c3.4,0,5.1,0.7,6,1.2c0.6,0.3,1.4,1.1,1.4,3.3c0,2.1-0.6,3.6-1.6,4.1
			c-1.5,0.7-3.4,1.4-5.6,1.4H30V69z M48.7,99.6c-1.9,0.8-4.2,1.4-6.8,1.4H30V88h12.1c3,0,5.3,1.2,6.9,2.1c0.8,0.4,1.8,1.8,1.8,4.7
			C50.7,97.9,49.6,99.2,48.7,99.6z"/>
		<polygon points="203.1,113 223,57 208.3,57 196.5,92 184.7,57 170.1,57 189.9,113 		"/>
		<circle cx="196.5" cy="77.7" r="1.3"/>
		<circle cx="196.5" cy="61.8" r="1.3"/>
		<polygon points="198,55 205,58.1 205,47.6 198,50.7 198,51 195,51 195,50.7 187,47.6 187,58.1 195,55 195,55 198,55 		"/>
		<circle cx="196.5" cy="69.8" r="1.3"/>
		<path d="M220,44h-10l1.3-35h-29.6l1.3,35H173v3h47V44z M207,44h-2V11h2.9L207,44z"/>
		<path d="M287.3,127c0.7-0.2,0.7-0.3,2.7-0.3V44h-61v3h50.3c4.2,0,6.7,3,6.7,7.3V122H10V54.3c0-4.2,2.2-7.3,6.4-7.3H165v-3H6v82.7
			c2,0,1.8,0.1,2.5,0.3c2.7,0.9,4.8,3.2,4.8,6c0,2.8-1.9,4-4.6,6h0l0,0c-0.2,0-0.7,0.2-0.9,0.3c-0.5,0.1,0.2,0.3-1.8,0.3v4.7v3.7
			h284v-8.4c-2,0-2-0.1-2.7-0.3c-2.7-0.9-4.7-3.3-4.7-6.1C282.6,130.3,284.6,127.9,287.3,127z M286,144v3H10v-3H286z"/>
	</g>
	<g id="XMLID_1_">
		<path id="XMLID_2_" class="st0" d="M24.6,134.5v5.5h-1.8v-13.6H28c1.5,0,2.6,0.4,3.4,1.1c0.8,0.7,1.2,1.7,1.2,3
			c0,1.2-0.4,2.2-1.2,3c-0.8,0.7-1.9,1.1-3.4,1.1H24.6z M24.6,133.1H28c0.9,0,1.6-0.2,2.1-0.7c0.5-0.5,0.7-1.1,0.7-1.9
			s-0.2-1.4-0.7-1.9s-1.1-0.8-2.1-0.8h-3.4V133.1z"/>
		<path id="XMLID_5_" class="st0" d="M45.5,126.3v9c0,1.5-0.5,2.7-1.5,3.5c-1,0.8-2.2,1.3-3.8,1.3c-1.5,0-2.7-0.4-3.6-1.3
			c-0.9-0.8-1.4-2-1.4-3.5v-9h1.8v9c0,1,0.3,1.9,0.9,2.4s1.4,0.9,2.3,0.9c1,0,1.8-0.3,2.4-0.9c0.6-0.6,0.9-1.4,0.9-2.4v-9H45.5z"/>
		<path id="XMLID_7_" class="st0" d="M49,140v-13.6h4.4c1.4,0,2.5,0.3,3.3,0.9c0.8,0.6,1.2,1.5,1.2,2.8c0,0.6-0.2,1.1-0.5,1.6
			c-0.4,0.5-0.8,0.8-1.4,1.1c0.9,0.1,1.6,0.5,2.1,1.2c0.5,0.6,0.8,1.4,0.8,2.3c0,1.2-0.4,2.2-1.2,2.9c-0.8,0.7-1.9,1-3.3,1H49z
			 M50.8,132.1h3c0.7,0,1.2-0.2,1.7-0.6c0.4-0.4,0.6-0.9,0.6-1.6c0-0.7-0.2-1.3-0.7-1.6c-0.5-0.4-1.1-0.5-2-0.5h-2.6V132.1z
			 M50.8,133.6v4.9h3.6c0.8,0,1.5-0.2,2-0.6c0.5-0.4,0.7-1,0.7-1.8c0-0.8-0.2-1.4-0.7-1.8s-1.1-0.7-1.9-0.7h-0.1H50.8z"/>
		<path id="XMLID_11_" class="st0" d="M79.4,134.1v5.9h-1.8v-13.6h4.7c1.5,0,2.6,0.3,3.4,1c0.8,0.7,1.2,1.6,1.2,2.9
			c0,0.7-0.2,1.3-0.5,1.8c-0.4,0.5-0.9,0.9-1.6,1.2c0.7,0.2,1.3,0.6,1.6,1.2c0.3,0.5,0.5,1.2,0.5,2v1.3c0,0.4,0,0.8,0.1,1.1
			c0.1,0.3,0.3,0.6,0.5,0.8v0.2h-1.9c-0.2-0.2-0.4-0.5-0.5-0.9c-0.1-0.4-0.1-0.8-0.1-1.3v-1.2c0-0.7-0.2-1.3-0.6-1.8
			c-0.4-0.4-1-0.7-1.7-0.7H79.4z M79.4,132.6H82c1,0,1.8-0.2,2.2-0.6c0.5-0.4,0.7-1,0.7-1.8c0-0.8-0.2-1.4-0.7-1.8
			c-0.4-0.4-1.1-0.6-2.1-0.6h-2.8V132.6z"/>
		<path id="XMLID_14_" class="st0" d="M97.7,133.6h-5.6v4.9h6.5v1.4h-8.4v-13.6h8.3v1.4h-6.4v4.4h5.6V133.6z"/>
		<path id="XMLID_16_" class="st0" d="M108.6,136.5c0-0.6-0.2-1.1-0.7-1.6c-0.4-0.4-1.2-0.8-2.3-1.1c-1.4-0.3-2.5-0.8-3.2-1.5
			s-1.2-1.5-1.2-2.5c0-1.1,0.4-2,1.3-2.7c0.8-0.7,1.9-1.1,3.3-1.1c1.4,0,2.6,0.4,3.4,1.2c0.9,0.8,1.3,1.8,1.2,2.8l0,0.1h-1.8
			c0-0.8-0.3-1.4-0.8-1.9c-0.5-0.5-1.2-0.8-2.1-0.8c-0.9,0-1.5,0.2-2,0.6c-0.5,0.4-0.7,1-0.7,1.6c0,0.6,0.3,1.1,0.8,1.5
			c0.5,0.4,1.3,0.7,2.4,1c1.4,0.4,2.4,0.9,3.1,1.6c0.7,0.7,1.1,1.5,1.1,2.6c0,1.1-0.4,2-1.3,2.6c-0.9,0.7-2,1-3.4,1
			c-1.3,0-2.5-0.4-3.5-1.1s-1.5-1.7-1.5-3l0-0.1h1.8c0,0.9,0.3,1.5,1,2s1.4,0.7,2.2,0.7c0.9,0,1.6-0.2,2.1-0.6
			C108.4,137.7,108.6,137.2,108.6,136.5z"/>
		<path id="XMLID_18_" class="st0" d="M123.1,127.8h-4.5V140h-1.8v-12.2h-4.4v-1.4h10.8V127.8z"/>
		<path id="XMLID_20_" class="st0" d="M131.9,136.5h-5.1l-1.2,3.5h-1.9l4.9-13.6h1.6L135,140h-1.9L131.9,136.5z M127.3,134.9h4.1
			l-2-5.8h-0.1L127.3,134.9z"/>
		<path id="XMLID_23_" class="st0" d="M147.4,126.3v9c0,1.5-0.5,2.7-1.5,3.5c-1,0.8-2.2,1.3-3.8,1.3c-1.5,0-2.7-0.4-3.6-1.3
			c-0.9-0.8-1.4-2-1.4-3.5v-9h1.8v9c0,1,0.3,1.9,0.9,2.4s1.4,0.9,2.3,0.9c1,0,1.8-0.3,2.4-0.9c0.6-0.6,0.9-1.4,0.9-2.4v-9H147.4z"/>
		<path id="XMLID_25_" class="st0" d="M152.7,134.1v5.9h-1.8v-13.6h4.7c1.5,0,2.6,0.3,3.4,1c0.8,0.7,1.2,1.6,1.2,2.9
			c0,0.7-0.2,1.3-0.5,1.8c-0.4,0.5-0.9,0.9-1.6,1.2c0.7,0.2,1.3,0.6,1.6,1.2s0.5,1.2,0.5,2v1.3c0,0.4,0,0.8,0.1,1.1
			c0.1,0.3,0.3,0.6,0.5,0.8v0.2h-1.9c-0.2-0.2-0.4-0.5-0.5-0.9c-0.1-0.4-0.1-0.8-0.1-1.3v-1.2c0-0.7-0.2-1.3-0.6-1.8
			c-0.4-0.4-1-0.7-1.7-0.7H152.7z M152.7,132.6h2.6c1,0,1.8-0.2,2.2-0.6c0.5-0.4,0.7-1,0.7-1.8c0-0.8-0.2-1.4-0.7-1.8
			s-1.1-0.6-2.1-0.6h-2.8V132.6z"/>
		<path id="XMLID_28_" class="st0" d="M170.6,136.5h-5.1l-1.2,3.5h-1.9l4.9-13.6h1.6l4.8,13.6h-1.9L170.6,136.5z M166,134.9h4.1
			l-2-5.8H168L166,134.9z"/>
		<path id="XMLID_31_" class="st0" d="M186.5,140h-1.8l-6.6-10.4l-0.1,0V140h-1.8v-13.6h1.8l6.6,10.4l0.1,0v-10.4h1.8V140z"/>
		<path id="XMLID_33_" class="st0" d="M199.5,127.8H195V140h-1.8v-12.2h-4.4v-1.4h10.8V127.8z"/>
		<path id="XMLID_35_" class="st0" d="M217.8,140v-13.6h4.3c1.8,0,3.2,0.5,4.3,1.6s1.6,2.5,1.6,4.2v1.9c0,1.7-0.5,3.2-1.6,4.2
			c-1.1,1.1-2.5,1.6-4.3,1.6H217.8z M219.7,127.8v10.7h2.4c1.3,0,2.3-0.4,3-1.2c0.7-0.8,1.1-1.9,1.1-3.2v-1.9c0-1.3-0.4-2.3-1.1-3.2
			s-1.7-1.2-3-1.2H219.7z"/>
		<path id="XMLID_38_" class="st0" d="M233.4,140h-1.9v-13.6h1.9V140z"/>
		<path id="XMLID_40_" class="st0" d="M244.5,136.5c0-0.6-0.2-1.1-0.7-1.6c-0.4-0.4-1.2-0.8-2.3-1.1c-1.4-0.3-2.5-0.8-3.2-1.5
			c-0.8-0.7-1.2-1.5-1.2-2.5c0-1.1,0.4-2,1.3-2.7c0.8-0.7,1.9-1.1,3.3-1.1c1.4,0,2.6,0.4,3.4,1.2c0.9,0.8,1.3,1.8,1.2,2.8l0,0.1
			h-1.8c0-0.8-0.3-1.4-0.8-1.9s-1.2-0.8-2.1-0.8c-0.9,0-1.5,0.2-2,0.6c-0.5,0.4-0.7,1-0.7,1.6c0,0.6,0.3,1.1,0.8,1.5
			c0.5,0.4,1.3,0.7,2.4,1c1.4,0.4,2.4,0.9,3.1,1.6c0.7,0.7,1.1,1.5,1.1,2.6c0,1.1-0.4,2-1.3,2.6s-2,1-3.4,1c-1.3,0-2.5-0.4-3.5-1.1
			c-1-0.7-1.5-1.7-1.5-3l0-0.1h1.8c0,0.9,0.3,1.5,1,2s1.4,0.7,2.2,0.7c0.9,0,1.6-0.2,2.1-0.6S244.5,137.2,244.5,136.5z"/>
		<path id="XMLID_42_" class="st0" d="M259.2,135.6L259.2,135.6c0,1.3-0.4,2.4-1.3,3.3c-0.9,0.9-2.1,1.3-3.7,1.3
			c-1.5,0-2.8-0.5-3.8-1.6c-1-1.1-1.5-2.5-1.5-4.2v-2.4c0-1.7,0.5-3.1,1.5-4.2c1-1.1,2.2-1.6,3.8-1.6s2.8,0.4,3.7,1.2
			c0.9,0.8,1.4,1.9,1.3,3.3l0,0.1h-1.8c0-1-0.3-1.7-0.8-2.3s-1.4-0.8-2.4-0.8c-1,0-1.8,0.4-2.5,1.2c-0.6,0.8-0.9,1.9-0.9,3.1v2.4
			c0,1.2,0.3,2.3,0.9,3.1c0.6,0.8,1.4,1.2,2.5,1.2c1,0,1.8-0.3,2.4-0.8s0.8-1.3,0.8-2.3H259.2z"/>
		<path id="XMLID_44_" class="st0" d="M272.6,134.4c0,1.7-0.5,3-1.5,4.1c-1,1.1-2.4,1.6-4,1.6c-1.6,0-2.9-0.5-3.9-1.6
			c-1-1.1-1.5-2.5-1.5-4.1v-2.4c0-1.7,0.5-3,1.5-4.1c1-1.1,2.3-1.7,3.9-1.7c1.6,0,3,0.6,4,1.7s1.5,2.5,1.5,4.1V134.4z M270.7,131.9
			c0-1.2-0.3-2.3-1-3.1s-1.6-1.2-2.7-1.2c-1.1,0-1.9,0.4-2.6,1.2s-1,1.8-1,3.1v2.4c0,1.3,0.3,2.3,1,3.1s1.5,1.2,2.6,1.2
			c1.1,0,2-0.4,2.7-1.2c0.7-0.8,1-1.8,1-3.1V131.9z"/>
	</g>
	<circle class="st0" cx="68.4" cy="133.1" r="1.6"/>
	<circle class="st0" cx="209.5" cy="133.1" r="1.6"/>
</g>
</svg>
