<?xml version="1.0" encoding="utf-8"?>
<!-- Generator: Adobe Illustrator 19.0.0, SVG Export Plug-In . SVG Version: 6.00 Build 0)  -->
<svg version="1.1" id="Layer_1" xmlns="http://www.w3.org/2000/svg" xmlns:xlink="http://www.w3.org/1999/xlink" x="0px" y="0px"
	 viewBox="3 -4 42 42" style="enable-background:new 3 -4 42 42;" xml:space="preserve">
<style type="text/css">
	.st0{opacity:0.15;fill:#FFFFFF;}
	.st1{fill:#FFFFFF;}
</style>
<circle class="st0" cx="24.1" cy="17" r="21"/>
<path class="st1" d="M29.4,16.9c0,3-2.4,5.4-5.4,5.4c-3,0-5.4-2.4-5.4-5.4c0-0.4,0-0.7,0.1-1h-3.6v7.2c0,1.5,1.2,2.8,2.8,2.8h12.3
	c1.5,0,2.8-1.2,2.8-2.8v-7.2h-3.6C29.3,16.2,29.4,16.6,29.4,16.9z M30.1,8H17.8c-1.5,0-2.8,1.2-2.8,2.8v3h4.5c1-1.4,2.6-2.3,4.4-2.3
	c1.8,0,3.4,0.9,4.4,2.3h4.5v-3C32.9,9.2,31.7,8,30.1,8z M31.5,11.4c0,0.3-0.2,0.5-0.5,0.5h-1.5c-0.3,0-0.5-0.2-0.5-0.5V10
	c0-0.3,0.2-0.5,0.5-0.5H31c0.3,0,0.5,0.2,0.5,0.5V11.4z M27.3,16.9c0-1.8-1.5-3.3-3.3-3.3c-1.8,0-3.3,1.5-3.3,3.3
	c0,1.8,1.5,3.3,3.3,3.3C25.8,20.2,27.3,18.8,27.3,16.9z"/>
</svg>
