<?xml version="1.0" encoding="utf-8"?>
<!-- Generator: Adobe Illustrator 19.0.0, SVG Export Plug-In . SVG Version: 6.00 Build 0)  -->
<svg version="1.1" id="Layer_1" xmlns="http://www.w3.org/2000/svg" xmlns:xlink="http://www.w3.org/1999/xlink" x="0px" y="0px"
	 viewBox="0 0 35 34" style="enable-background:new 0 0 35 34;" xml:space="preserve">
<style type="text/css">
	.st0{opacity:0.14;fill:#FFFFFF;}
	.st1{fill:#FFFFFF;}
</style>
<g>
	<circle class="st0" cx="17.5" cy="17" r="17"/>
	<g>
		<g>
			<path class="st1" d="M14.7,25.6c0.2,0.1,0.4-0.1,0.3-0.3c-0.6-1-1.2-2.6-0.3-4.7c1.6-3.5,2.5-5.3,2.5-5.3s0.5,2.1,1.9,4
				c1.3,1.8,2.1,4.1,0.9,6c-0.1,0.2,0.1,0.4,0.3,0.3c1.4-0.7,3.1-2.2,3.3-5.2c0.1-0.9,0-2.2-0.5-3.8c-0.7-2-1.5-3-1.9-3.4
				c-0.1-0.1-0.4,0-0.3,0.2c0.1,2.2-0.7,2.7-1.2,1.5c-0.2-0.5-0.3-1.4-0.3-2.4c0-1.8-0.5-3.6-1.6-5c-0.3-0.4-0.6-0.7-1-1
				c-0.1-0.1-0.3,0-0.3,0.2c0.1,1.2,0,4.6-3,8.7c-2.7,3.8-1.7,6.7-1.3,7.4C12.7,24.2,13.7,25.1,14.7,25.6L14.7,25.6z M14.7,25.6"/>
		</g>
	</g>
</g>
</svg>
